<?xml version="1.0" encoding="UTF-8"?>
<svg version="1.1" xmlns="http://www.w3.org/2000/svg" width="430" height="151">
<path d="M0 0 C8.20640683 -0.09062461 16.41242 -0.16390115 24.61919403 -0.20724869 C28.43056435 -0.22806079 32.24157246 -0.25625997 36.05273438 -0.30175781 C39.73563664 -0.34544579 43.41819208 -0.36918499 47.10133362 -0.37950897 C48.50148472 -0.3868595 49.90161836 -0.40121298 51.30162048 -0.42292023 C67.02693537 -0.65688962 67.02693537 -0.65688962 73.50817871 5.41229248 C78.28098401 10.73816689 79.45280525 15.46188972 79.328125 22.43359375 C78.80971281 26.48831765 77.07021426 29.53956887 75 33 C74.32402585 34.32863884 73.65484162 35.6608194 73 37 C73.34933594 37.47050781 73.69867188 37.94101563 74.05859375 38.42578125 C74.51363281 39.04839844 74.96867187 39.67101562 75.4375 40.3125 C75.88996094 40.92738281 76.34242188 41.54226562 76.80859375 42.17578125 C79.77129265 46.71211039 79.54913137 51.78711914 79 57 C77.20522872 62.92787316 74.01962539 66.51699463 69 70 C65.06694575 71.92227879 61.91571362 72.24424345 57.55737305 72.22705078 C56.27642258 72.22689972 54.99547211 72.22674866 53.67570496 72.22659302 C52.28770795 72.2163813 50.89971256 72.20594933 49.51171875 72.1953125 C48.08397113 72.1915795 46.65622095 72.18873388 45.22846985 72.18673706 C41.48181001 72.17912318 37.73530674 72.15949419 33.9887085 72.1373291 C29.48742661 72.11321275 24.98609219 72.10407898 20.4847641 72.09242249 C13.65640071 72.07306828 6.82838045 72.03473039 0 72 C0 58.8 0 45.6 0 32 C8.25 32 16.5 32 25 32 C25 37.28 25 42.56 25 48 C27.57554687 47.97679687 30.15109375 47.95359375 32.8046875 47.9296875 C35.29345202 47.91409928 37.78221114 47.90194982 40.27099609 47.89013672 C42.00344265 47.88006624 43.73587216 47.86640911 45.46826172 47.84912109 C47.95544639 47.82491838 50.44240675 47.81352761 52.9296875 47.8046875 C54.09538773 47.78920364 54.09538773 47.78920364 55.28463745 47.77340698 C57.19125493 47.77300729 59.09731036 47.8776786 61 48 C61.66 48.66 62.32 49.32 63 50 C62.44444444 54.55555556 62.44444444 54.55555556 61 56 C59.58774954 56.0928726 58.17091066 56.11746772 56.75561523 56.11352539 C55.85475693 56.11344986 54.95389862 56.11337433 54.02574158 56.11329651 C53.04658279 56.10813522 52.06742401 56.10297394 51.05859375 56.09765625 C50.06118668 56.0962413 49.0637796 56.09482635 48.03614807 56.09336853 C44.83656876 56.08775114 41.63705831 56.07519571 38.4375 56.0625 C36.27408955 56.05748724 34.11067801 56.05292395 31.94726562 56.04882812 C26.63148371 56.03777606 21.31575354 56.02049979 16 56 C16 50.72 16 45.44 16 40 C13.69 40 11.38 40 9 40 C9 47.92 9 55.84 9 64 C16.13560479 63.9259103 23.26997729 63.84299295 30.4050293 63.73754883 C32.83074498 63.70435534 35.25653686 63.67630616 37.68237305 63.65356445 C41.17529684 63.61991669 44.66752585 63.56759369 48.16015625 63.51171875 C49.77930687 63.50213387 49.77930687 63.50213387 51.4311676 63.49235535 C57.35104547 63.37753359 61.81954763 62.97272129 67 60 C69.6790573 55.98141405 69.69610694 52.72358279 69 48 C67.20606332 45.12970131 66.01736724 43.50868362 63 42 C60.67726841 41.84479443 58.35040687 41.74980833 56.0234375 41.68359375 C55.33819 41.66281265 54.6529425 41.64203156 53.94692993 41.62062073 C51.75638931 41.55519815 49.56572811 41.49627446 47.375 41.4375 C45.8906125 41.39430782 44.40623722 41.3506933 42.921875 41.30664062 C39.28137916 41.19952447 35.64074749 41.09823638 32 41 C32 38.03 32 35.06 32 32 C32.81154541 31.98541748 33.62309082 31.97083496 34.45922852 31.95581055 C38.16078193 31.88102368 41.86146379 31.78446239 45.5625 31.6875 C46.83931641 31.66494141 48.11613281 31.64238281 49.43164062 31.61914062 C58.64184265 31.41792875 58.64184265 31.41792875 67 28 C69.6790573 23.98141405 69.69610694 20.72358279 69 16 C67.20606332 13.12970131 66.01736724 11.50868362 63 10 C61.27472879 9.88082832 59.54507102 9.82282674 57.81591797 9.79467773 C56.73494843 9.77473251 55.65397888 9.75478729 54.54025269 9.73423767 C53.36939117 9.71752518 52.19852966 9.70081268 50.9921875 9.68359375 C49.79643097 9.66281265 48.60067444 9.64203156 47.36868286 9.62062073 C43.53751536 9.55507711 39.70627762 9.49621782 35.875 9.4375 C33.28254473 9.39431937 30.69009664 9.35070523 28.09765625 9.30664062 C21.73184573 9.19939081 15.36596487 9.0976334 9 9 C9 11.31 9 13.62 9 16 C9.64701874 15.99555878 10.29403748 15.99111755 10.96066284 15.98654175 C17.67606403 15.94240075 24.39142422 15.91217212 31.10693359 15.89013672 C33.61541415 15.88005989 36.12388292 15.86639821 38.63232422 15.84912109 C42.23147488 15.82494663 45.83047067 15.81353388 49.4296875 15.8046875 C50.55680145 15.79436493 51.68391541 15.78404236 52.84518433 15.77340698 C53.88611237 15.77325592 54.92704041 15.77310486 55.99951172 15.77294922 C56.91884491 15.768508 57.8381781 15.76406677 58.78536987 15.75949097 C61 16 61 16 63 18 C62.8125 20.5 62.8125 20.5 62 23 C58.5531423 25.29790514 57.29881048 25.24434461 53.2434082 25.22705078 C52.06241043 25.22689972 50.88141266 25.22674866 49.66462708 25.22659302 C48.38955795 25.21627045 47.11448883 25.20594788 45.80078125 25.1953125 C44.49545944 25.1924826 43.19013763 25.18965271 41.84526062 25.18673706 C38.37804485 25.17910747 34.91099712 25.15946493 31.44384766 25.1373291 C27.90464552 25.11685605 24.36541618 25.10773223 20.82617188 25.09765625 C13.88403867 25.07621828 6.94204471 25.04104169 0 25 C0 16.75 0 8.5 0 0 Z " fill="#547E25" transform="translate(243,42)"/>
<path d="M0 0 C0.98071472 0.00007553 1.96142944 0.00015106 2.97186279 0.00022888 C4.02303284 0.00539017 5.07420288 0.01055145 6.15722656 0.01586914 C7.23917297 0.01728409 8.32111938 0.01869904 9.43585205 0.02015686 C12.88988007 0.02575221 16.34384315 0.03830389 19.79785156 0.05102539 C22.14029854 0.05604099 24.48274654 0.06060379 26.82519531 0.06469727 C32.56612584 0.07486901 38.30691606 0.09444547 44.04785156 0.11352539 C44.04785156 8.36352539 44.04785156 16.61352539 44.04785156 25.11352539 C40.71304688 25.13930664 37.37824219 25.16508789 33.94238281 25.19165039 C30.7088175 25.23007452 27.47541145 25.27523372 24.24194336 25.32104492 C21.99657813 25.34925181 19.75111365 25.37046771 17.50561523 25.38452148 C14.27568768 25.40595431 11.04695301 25.4526081 7.81738281 25.50415039 C6.81512161 25.50537903 5.81286041 25.50660767 4.78022766 25.50787354 C0.36365055 25.60046237 -2.23809592 25.67436712 -6.06274414 28.02661133 C-9.08808013 31.36820224 -9.1861121 33.65267051 -9.09667969 38.14868164 C-8.90898665 40.70029242 -8.58300386 42.112021 -6.95214844 44.11352539 C-2.51880547 46.74309427 0.85064256 47.51181723 5.97753906 47.62524414 C7.26660156 47.66069336 8.55566406 47.69614258 9.88378906 47.73266602 C11.23013798 47.75576032 12.57649229 47.77854294 13.92285156 47.80102539 C15.29267527 47.83423422 16.66246849 47.86872714 18.03222656 47.90454102 C21.37068566 47.98682698 24.70888841 48.05604467 28.04785156 48.11352539 C28.04785156 50.75352539 28.04785156 53.39352539 28.04785156 56.11352539 C23.47638176 56.21296337 18.90555181 56.28525888 14.33325195 56.33325195 C12.78040591 56.35327409 11.22763438 56.38050056 9.67504883 56.4152832 C7.43324324 56.4642215 5.19244063 56.48658707 2.95019531 56.50415039 C2.26448959 56.52479553 1.57878387 56.54544067 0.87229919 56.56671143 C-5.14320566 56.56946445 -9.19946228 54.57645511 -13.65917969 50.58618164 C-18.3968708 44.54269581 -19.78729575 39.69509713 -18.95214844 32.11352539 C-16.90377733 25.75279406 -13.86784948 20.67772683 -7.86987305 17.45996094 C-3.44393525 15.67459535 0.7662162 15.73351801 5.48144531 15.82055664 C6.79835106 15.8269239 6.79835106 15.8269239 8.14186096 15.8334198 C10.92334736 15.85010249 13.7040872 15.88773454 16.48535156 15.92602539 C18.38052333 15.94108571 20.27570655 15.95477175 22.17089844 15.96704102 C26.79683353 15.9999718 31.42221633 16.05168111 36.04785156 16.11352539 C36.04785156 13.80352539 36.04785156 11.49352539 36.04785156 9.11352539 C30.21234408 9.15784957 24.37790097 9.22786276 18.54296875 9.32104492 C16.56063334 9.34916086 14.57818777 9.37042178 12.59570312 9.38452148 C9.73543281 9.40608131 6.87647386 9.45279754 4.01660156 9.50415039 C2.70048889 9.50599335 2.70048889 9.50599335 1.35778809 9.50787354 C-6.58186104 9.69419398 -13.27688834 12.4382653 -18.95214844 18.11352539 C-24.01864231 25.87832194 -26.19101836 32.79250406 -24.95214844 42.11352539 C-21.79929171 51.08116634 -17.92801056 56.66924224 -9.38964844 60.86352539 C-3.69717261 62.9335166 1.6059607 63.30144185 7.62988281 63.42993164 C8.44406174 63.45071274 9.25824066 63.47149384 10.09709167 63.49290466 C12.68476336 63.55802002 15.27253209 63.61710747 17.86035156 63.67602539 C19.62012702 63.71924681 21.37989284 63.76286224 23.13964844 63.80688477 C27.44228501 63.91439997 31.74500059 64.01375529 36.04785156 64.11352539 C36.04785156 58.83352539 36.04785156 53.55352539 36.04785156 48.11352539 C38.68785156 48.11352539 41.32785156 48.11352539 44.04785156 48.11352539 C44.04785156 56.03352539 44.04785156 63.95352539 44.04785156 72.11352539 C37.00334899 72.22888297 29.96217821 72.32825524 22.91748047 72.38818359 C20.52576538 72.41318803 18.13412562 72.44720293 15.74267578 72.49072266 C12.28691931 72.55199493 8.83218082 72.5798772 5.37597656 72.60180664 C4.32234924 72.62761307 3.26872192 72.65341949 2.1831665 72.68000793 C-7.64269992 72.68364542 -17.19992148 69.7574283 -24.42871094 62.82836914 C-31.28396685 55.11181185 -35.75352567 45.84569588 -35.23339844 35.26977539 C-33.6664805 23.25673788 -29.50213534 14.39168154 -20.10449219 6.61743164 C-14.02021532 2.3661674 -7.4118127 -0.01910261 0 0 Z " fill="#547E24" transform="translate(366.9521484375,41.886474609375)"/>
<path d="M0 0 C26.07 0 52.14 0 79 0 C79 7.92 79 15.84 79 24 C78 25 78 25 75.86766052 25.12025452 C74.92834183 25.11803391 73.98902313 25.11581329 73.02124023 25.11352539 C71.96021591 25.11344986 70.89919159 25.11337433 69.80601501 25.11329651 C68.651866 25.10813522 67.49771698 25.10297394 66.30859375 25.09765625 C65.13361832 25.0962413 63.95864288 25.09482635 62.74806213 25.09336853 C58.97784936 25.08774992 55.20769496 25.07519426 51.4375 25.0625 C48.88867273 25.0574874 46.33984453 25.05292408 43.79101562 25.04882812 C37.52732367 25.03777444 31.26366601 25.02101821 25 25 C25 27.31 25 29.62 25 32 C38.2 32 51.4 32 65 32 C65 34.64 65 37.28 65 40 C64 41 64 41 62.05747986 41.12025452 C61.20698563 41.11803391 60.35649139 41.11581329 59.48022461 41.11352539 C58.03884377 41.11341209 58.03884377 41.11341209 56.56834412 41.11329651 C55.523564 41.10813522 54.47878387 41.10297394 53.40234375 41.09765625 C52.33834854 41.0962413 51.27435333 41.09482635 50.17811584 41.09336853 C46.76454917 41.08775064 43.351047 41.07519511 39.9375 41.0625 C37.62955824 41.05748731 35.32161545 41.052924 33.01367188 41.04882812 C27.34240279 41.03862433 21.67127399 41.01905243 16 41 C16 32.75 16 24.5 16 16 C33.82 16 51.64 16 70 16 C70 13.69 70 11.38 70 9 C49.87 9 29.74 9 9 9 C9 27.15 9 45.3 9 64 C11.31 64 13.62 64 16 64 C16 58.72 16 53.44 16 48 C18.97 48 21.94 48 25 48 C25 55.92 25 63.84 25 72 C16.75 72 8.5 72 0 72 C0 48.24 0 24.48 0 0 Z " fill="#557E25" transform="translate(158,42)"/>
<path d="M0 0 C3.83475164 0.21912867 4.94164113 0.94028394 7.6875 3.75 C11.39811924 8.96492433 12.55602958 12.55005687 12 19 C11.02936517 21.34570085 10.03101947 23.68020619 9 26 C8.87455314 28.64082531 8.87455314 28.64082531 9 31 C9.64066406 30.31292969 10.28132813 29.62585938 10.94140625 28.91796875 C17.11827835 22.48334342 21.33102958 18.10367026 30.5 17.5625 C35.24789832 17.70094643 38.11816269 19.35704694 42 22 C41.88386929 25.8323135 40.51047623 27.89420484 38 30.625 C34.12102296 34.24273981 30.29912703 36.33760912 25 37 C20.7861585 36.59328429 16.99715914 35.33238638 13 34 C9.71439366 36.49706082 9.04194945 37.73216888 8.390625 41.890625 C8.32460767 43.34300623 8.2782503 44.79639364 8.25 46.25 C8.20552734 47.36761719 8.20552734 47.36761719 8.16015625 48.5078125 C8.0897657 50.33796672 8.04258168 52.16898769 8 54 C11.63 54 15.26 54 19 54 C19.66 55.32 20.32 56.64 21 58 C20.67 58.99 20.34 59.98 20 61 C21.32 61.33 22.64 61.66 24 62 C23.7215625 63.11375 23.7215625 63.11375 23.4375 64.25 C23.00796892 66.94990963 23.14877026 68.44631077 24 71 C23.01 71.495 23.01 71.495 22 72 C22.75925781 72.64066406 23.51851562 73.28132813 24.30078125 73.94140625 C34.62485142 82.92642711 34.62485142 82.92642711 36 89 C35.9084746 94.30847307 34.75339955 97.24660045 31 101 C28.13099082 102.72078634 26.00735412 103.25392678 22.67797852 103.2746582 C21.83352676 103.28419022 20.98907501 103.29372223 20.11903381 103.30354309 C18.76267067 103.30217598 18.76267067 103.30217598 17.37890625 103.30078125 C15.97353859 103.30720894 15.97353859 103.30720894 14.53977966 103.31376648 C12.56030077 103.3195038 10.5808008 103.32001445 8.60131836 103.31567383 C5.57694436 103.31251509 2.55354989 103.33597628 -0.47070312 103.36132812 C-2.3958321 103.36360134 -4.3209637 103.36430451 -6.24609375 103.36328125 C-7.14831161 103.372491 -8.05052948 103.38170074 -8.98008728 103.39118958 C-13.81732899 103.35564212 -17.08207738 103.15413648 -21 100 C-24.04653908 96.6327726 -25.35037406 94.12342649 -25.1875 89.625 C-23.82701056 81.51648293 -16.60021563 76.42488942 -10.6015625 71.4453125 C-7.95612635 69.05796768 -7.3322256 66.48836881 -7 63 C-7.495 62.34 -7.99 61.68 -8.5 61 C-8.995 60.34 -9.49 59.68 -10 59 C-9.67 57.35 -9.34 55.7 -9 54 C-5.04 54 -1.08 54 3 54 C2.77342905 49.54410474 2.54294291 46.87994196 0.1875 43.0625 C-3.93937842 40.3921669 -7.16189082 40.51465024 -11.98828125 40.2890625 C-17.81935257 39.72940066 -21.58930705 37.59155103 -25.4375 33.25 C-27.34369694 29.28511037 -27.77719614 26.38180931 -28 22 C-26.16710552 20.16710552 -23.40396175 20.74130341 -20.9375 20.6875 C-13.58089694 20.75203161 -8.95971631 22.12027602 -3.6875 27.25 C-1.55898984 30.71868322 -0.34440031 34.15885625 1 38 C1.495 38.495 1.495 38.495 2 39 C2.99556038 30.09496671 2.99556038 30.09496671 -0.4375 22.3125 C-1.283125 21.549375 -2.12875 20.78625 -3 20 C-4.9722333 16.0555334 -4.45458651 11.2979088 -4 7 C-2.9383472 4.29255356 -1.70086623 2.39184314 0 0 Z M2 5 C-0.4678316 8.70174739 -0.68072732 11.70493475 0 16 C2.24162425 20.25666699 2.24162425 20.25666699 6 23 C8.04968622 19.14176711 8.2641724 16.15603787 7.625 11.9375 C6.60925297 8.78868421 4.49838264 7.04995498 2 5 Z M18.125 28.25 C17.568125 29.11625 17.568125 29.11625 17 30 C20.52145908 32.34763939 22.43763026 32.58258047 26.5703125 32.53515625 C31.06426554 31.54533058 33.93779326 28.27080393 37 25 C34.59434833 22.19216508 34.14863687 22.01705669 30.1875 21.5625 C24.85837603 21.76821986 21.49915624 24.20101251 18.125 28.25 Z M-24 25 C-22.52089344 29.52432595 -21.69552997 31.45748662 -17.875 34.4375 C-13.68859446 36.54414947 -9.58136042 36.37398861 -5 36 C-6.23858396 31.04566415 -7.72758333 28.81354269 -12 26 C-14.88211302 25.03929566 -16.69850044 24.89418117 -19.6875 24.9375 C-20.49574219 24.94652344 -21.30398437 24.95554687 -22.13671875 24.96484375 C-22.75160156 24.97644531 -23.36648437 24.98804687 -24 25 Z M-4 59 C-2.91961603 61.57546394 -2.91961603 61.57546394 -1 64 C1.81373482 64.79243425 1.81373482 64.79243425 4.9375 64.625 C5.97777344 64.63789062 7.01804687 64.65078125 8.08984375 64.6640625 C11.87440252 63.80047191 12.91019846 62.17246982 15 59 C12.95920995 58.8031879 10.91729993 58.61797169 8.875 58.4375 C7.73804688 58.33308594 6.60109375 58.22867188 5.4296875 58.12109375 C2.11102007 58.00391984 -0.7562686 58.3344928 -4 59 Z M-9 76 C-10.4130007 77.29801873 -11.85010597 78.570394 -13.3125 79.8125 C-18.10310739 83.62989885 -18.10310739 83.62989885 -20.875 88.875 C-21.02524355 92.63108863 -20.28344384 94.06414363 -18 97 C-14.9821119 99.0119254 -14.36267076 99.25538856 -10.97509766 99.30639648 C-10.17061188 99.32238388 -9.3661261 99.33837128 -8.53726196 99.35484314 C-7.67160614 99.36020584 -6.80595032 99.36556854 -5.9140625 99.37109375 C-5.02012787 99.38012222 -4.12619324 99.3891507 -3.20516968 99.39845276 C-1.31389721 99.41295977 0.5774255 99.42184312 2.46875 99.42553711 C5.35763446 99.43742852 8.24437925 99.48660368 11.1328125 99.53710938 C12.97134375 99.54657436 14.80988811 99.55380904 16.6484375 99.55859375 C17.94084854 99.58789223 17.94084854 99.58789223 19.2593689 99.61778259 C23.63821372 99.58495853 25.45453626 99.41484805 29.04541016 96.68383789 C31.25156832 94.06574604 31.25156832 94.06574604 31.625 90.5 C30.8354464 86.07849983 29.23955126 85.03422759 26 82 C25.175 81.16339844 24.35 80.32679687 23.5 79.46484375 C22.675 78.63082031 21.85 77.79679687 21 76.9375 C20.175 76.10089844 19.35 75.26429687 18.5 74.40234375 C12.78911719 68.81645584 12.78911719 68.81645584 5.1875 67.25 C-2.02104084 67.48822595 -4.58227511 70.74648932 -9 76 Z " fill="#39674F" transform="translate(61,27)"/>
<path d="M0 0 C1.31690575 0.00636726 1.31690575 0.00636726 2.66041565 0.01286316 C5.44190205 0.02954585 8.22264189 0.0671779 11.00390625 0.10546875 C12.89907802 0.12052907 14.79426123 0.13421511 16.68945312 0.14648438 C21.31538822 0.17941515 25.94077102 0.23112447 30.56640625 0.29296875 C28.56640625 2.29296875 28.56640625 2.29296875 25.06982422 2.45654297 C23.56589384 2.42906086 22.06211881 2.39208876 20.55859375 2.34765625 C18.91537336 2.32234027 17.27214371 2.29762011 15.62890625 2.2734375 C13.04169762 2.22402221 10.45497287 2.16832143 7.86816406 2.10107422 C5.36911173 2.04015682 2.87065812 2.00495085 0.37109375 1.97265625 C-0.39067169 1.945737 -1.15243713 1.91881775 -1.93728638 1.89108276 C-7.47606248 1.84007022 -11.86660226 3.06350142 -16.43359375 6.29296875 C-18.58553745 9.5208843 -18.63445818 10.57697684 -18.43359375 14.29296875 C-18.10359375 13.96296875 -17.77359375 13.63296875 -17.43359375 13.29296875 C-16.44359375 12.96296875 -15.45359375 12.63296875 -14.43359375 12.29296875 C-14.16546875 11.63296875 -13.89734375 10.97296875 -13.62109375 10.29296875 C-13.22921875 9.63296875 -12.83734375 8.97296875 -12.43359375 8.29296875 C-7.27580312 7.01078594 -2.04609029 7.14222316 3.234375 7.1171875 C5.11524585 7.09401203 6.9961053 7.06989566 8.87695312 7.04492188 C11.8264966 7.00967622 14.77561228 6.98037066 17.7253418 6.96704102 C20.58303405 6.95161968 23.43950392 6.91148087 26.296875 6.8671875 C27.62346382 6.87005013 27.62346382 6.87005013 28.97685242 6.87297058 C33.82278123 6.91365401 33.82278123 6.91365401 37.64575195 4.25708008 C37.94956787 3.60892334 38.25338379 2.9607666 38.56640625 2.29296875 C38.56640625 4.60296875 38.56640625 6.91296875 38.56640625 9.29296875 C37.98868973 9.29661438 37.41097321 9.30026001 36.81575012 9.30401611 C30.79692513 9.34586151 24.77886125 9.41522118 18.76049805 9.50048828 C16.51513281 9.52869517 14.26966834 9.54991107 12.02416992 9.56396484 C8.79424236 9.58539767 5.56550769 9.63205146 2.3359375 9.68359375 C1.3336763 9.68482239 0.3314151 9.68605103 -0.70121765 9.68731689 C-5.11779476 9.77990573 -7.71954123 9.85381048 -11.54418945 12.20605469 C-14.3396242 15.29371152 -14.63050876 17.34430748 -14.99609375 21.41796875 C-15.07988281 22.32804687 -15.16367187 23.238125 -15.25 24.17578125 C-15.31058594 24.87445313 -15.37117188 25.573125 -15.43359375 26.29296875 C-17.08359375 26.95296875 -18.73359375 27.61296875 -20.43359375 28.29296875 C-20.43359375 27.63296875 -20.43359375 26.97296875 -20.43359375 26.29296875 C-21.09359375 25.96296875 -21.75359375 25.63296875 -22.43359375 25.29296875 C-21.77359375 27.27296875 -21.11359375 29.25296875 -20.43359375 31.29296875 C-18.45359375 31.62296875 -16.47359375 31.95296875 -14.43359375 32.29296875 C-14.43359375 32.95296875 -14.43359375 33.61296875 -14.43359375 34.29296875 C-13.77359375 34.62296875 -13.11359375 34.95296875 -12.43359375 35.29296875 C-13.09359375 36.28296875 -13.75359375 37.27296875 -14.43359375 38.29296875 C-19.43436038 34.55266932 -22.64758318 31.49147602 -24.43359375 25.29296875 C-25.39054472 17.70475192 -23.54927985 12.34895978 -19.18359375 6.04296875 C-13.44171186 0.30108686 -7.72921245 -0.14267388 0 0 Z " fill="#557C28" transform="translate(372.43359375,57.70703125)"/>
<path d="M0 0 C0.33 0 0.66 0 1 0 C1.03738281 0.88042969 1.07476562 1.76085938 1.11328125 2.66796875 C1.17902344 3.82941406 1.24476563 4.99085937 1.3125 6.1875 C1.37050781 7.33605469 1.42851562 8.48460938 1.48828125 9.66796875 C2.06501608 13.42334897 2.49173004 15.13750871 5 18 C8.0705747 18.78137017 11.10672431 18.72110921 14.26171875 18.70703125 C15.16751175 18.72215256 16.07330475 18.73727386 17.00654602 18.75285339 C19.90044818 18.79585136 22.79330976 18.80457992 25.6875 18.8125 C27.64911644 18.83563494 29.61070796 18.86099818 31.57226562 18.88867188 C36.38160289 18.95164366 41.19028666 18.98388441 46 19 C46 17.35 46 15.7 46 14 C44.28901123 13.970271 44.28901123 13.970271 42.54345703 13.93994141 C38.32024677 13.86399433 34.09738601 13.77526072 29.87451172 13.68261719 C28.04515471 13.64428223 26.21572115 13.60943737 24.38623047 13.578125 C21.75981241 13.53257195 19.13392341 13.47456269 16.5078125 13.4140625 C15.68693146 13.40251129 14.86605042 13.39096008 14.02029419 13.37905884 C8.22774341 13.22774341 8.22774341 13.22774341 6 11 C5.875 8.375 5.875 8.375 6 6 C6.66 6 7.32 6 8 6 C8 5.34 8 4.68 8 4 C24.83 4 41.66 4 59 4 C59 4.33 59 4.66 59 5 C42.5 5 26 5 9 5 C9 7.31 9 9.62 9 12 C22.2 12 35.4 12 49 12 C49 14.64 49 17.28 49 20 C48 21 48 21 46.05747986 21.12025452 C45.20698563 21.11803391 44.35649139 21.11581329 43.48022461 21.11352539 C42.03884377 21.11341209 42.03884377 21.11341209 40.56834412 21.11329651 C39.523564 21.10813522 38.47878387 21.10297394 37.40234375 21.09765625 C36.33834854 21.0962413 35.27435333 21.09482635 34.17811584 21.09336853 C30.76454917 21.08775064 27.351047 21.07519511 23.9375 21.0625 C21.62955824 21.05748731 19.32161545 21.052924 17.01367188 21.04882812 C11.34240279 21.03862433 5.67127399 21.01905243 0 21 C0 14.07 0 7.14 0 0 Z " fill="#567531" transform="translate(174,62)"/>
<path d="M0 0 C0.76978683 0.0028299 1.53957367 0.00565979 2.33268738 0.00857544 C4.777943 0.01972093 7.22282487 0.04481469 9.66796875 0.0703125 C11.3313749 0.0803496 12.99478682 0.08947417 14.65820312 0.09765625 C18.72410112 0.11964177 22.78972169 0.15413236 26.85546875 0.1953125 C27.23765642 1.85145907 27.56941977 3.51988274 27.85546875 5.1953125 C26.85546875 6.1953125 26.85546875 6.1953125 23.25366211 6.30883789 C21.65087019 6.30867875 20.04807315 6.30298313 18.4453125 6.29296875 C17.60327774 6.2915538 16.76124298 6.29013885 15.89369202 6.28868103 C13.1934154 6.28306513 10.49322047 6.27050998 7.79296875 6.2578125 C5.96679807 6.25279955 4.14062609 6.24823629 2.31445312 6.24414062 C-2.17190667 6.23309054 -6.65820509 6.21581529 -11.14453125 6.1953125 C-11.14453125 5.5353125 -11.14453125 4.8753125 -11.14453125 4.1953125 C-11.80453125 3.5353125 -12.46453125 2.8753125 -13.14453125 2.1953125 C-8.77883735 0.02932875 -4.77126949 -0.06657661 0 0 Z " fill="#548022" transform="translate(278.14453125,90.8046875)"/>
<path d="M0 0 C1.32 0.33 2.64 0.66 4 1 C4 1.66 4 2.32 4 3 C4.99 3.33 5.98 3.66 7 4 C6.67 4.99 6.34 5.98 6 7 C4.35 7.33 2.7 7.66 1 8 C1.99 8.66 2.98 9.32 4 10 C5.75 11.3125 5.75 11.3125 7 13 C6.77690773 17.127207 4.9249266 20.40122418 3 24 C1.68 23.67 0.36 23.34 -1 23 C-1 22.01 -1 21.02 -1 20 C-1.99 20 -2.98 20 -4 20 C-4 19.01 -4 18.02 -4 17 C-2.02 16.67 -0.04 16.34 2 16 C2 15.34 2 14.68 2 14 C1.195625 13.690625 0.39125 13.38125 -0.4375 13.0625 C-3 12 -3 12 -4 11 C-4.68322745 6.21740783 -2.79767441 3.75937499 0 0 Z " fill="#35644D" transform="translate(65,98)"/>
<path d="M0 0 C0.33 0 0.66 0 1 0 C1 2.31 1 4.62 1 7 C0.42228348 7.00364563 -0.15543304 7.00729126 -0.75065613 7.01104736 C-6.76948112 7.05289276 -12.787545 7.12225243 -18.8059082 7.20751953 C-21.05127344 7.23572642 -23.29673791 7.25694232 -25.54223633 7.27099609 C-28.77216389 7.29242892 -32.00089856 7.33908271 -35.23046875 7.390625 C-36.23272995 7.39185364 -37.23499115 7.39308228 -38.2676239 7.39434814 C-42.68420101 7.48693698 -45.28594748 7.56084173 -49.1105957 9.91308594 C-51.76967101 12.85012893 -52.176371 14.76371005 -52.5625 18.625 C-52.64628906 19.44226563 -52.73007812 20.25953125 -52.81640625 21.1015625 C-52.87699219 21.72804688 -52.93757813 22.35453125 -53 23 C-53.66 22.67 -54.32 22.34 -55 22 C-55.484375 20.00390625 -55.484375 20.00390625 -55.75 17.5625 C-55.89695312 16.35787109 -55.89695312 16.35787109 -56.046875 15.12890625 C-56 13 -56 13 -54 11 C-53.360625 10.319375 -52.72125 9.63875 -52.0625 8.9375 C-48.65904579 5.74031574 -44.37775322 4.89082364 -39.80395508 4.79467773 C-38.96331009 4.77473251 -38.1226651 4.75478729 -37.25654602 4.73423767 C-35.90172371 4.70916893 -35.90172371 4.70916893 -34.51953125 4.68359375 C-33.12754768 4.6524221 -33.12754768 4.6524221 -31.70744324 4.62062073 C-28.7425376 4.55522677 -25.77754328 4.49628738 -22.8125 4.4375 C-20.8027252 4.39430513 -18.79295937 4.35069053 -16.78320312 4.30664062 C-11.85555968 4.19955573 -6.92782701 4.09825955 -2 4 C-1.34 2.68 -0.68 1.36 0 0 Z " fill="#577633" transform="translate(410,60)"/>
<path d="M0 0 C3.3 0 6.6 0 10 0 C10 0.33 10 0.66 10 1 C7.69 1.33 5.38 1.66 3 2 C3 8.93 3 15.86 3 23 C21.48 23.33 39.96 23.66 59 24 C59 24.33 59 24.66 59 25 C39.53 25 20.06 25 0 25 C0 16.75 0 8.5 0 0 Z " fill="#557036" transform="translate(243,42)"/>
<path d="M0 0 C16.83 0 33.66 0 51 0 C51 0.33 51 0.66 51 1 C34.5 1 18 1 1 1 C1 3.31 1 5.62 1 8 C14.2 8 27.4 8 41 8 C37.11006654 10.59328897 33.95988069 10.19082714 29.46484375 10.046875 C28.63038223 10.02659241 27.79592072 10.00630981 26.93617249 9.9854126 C25.17337398 9.93986092 23.41070369 9.88909173 21.64819336 9.83349609 C18.94467053 9.75022087 16.24124788 9.68842435 13.53710938 9.62890625 C11.82548507 9.5820171 10.11389433 9.53388236 8.40234375 9.484375 C7.59087387 9.46654968 6.77940399 9.44872437 5.94334412 9.43035889 C0.23007755 9.23007755 0.23007755 9.23007755 -2 7 C-2.125 4.375 -2.125 4.375 -2 2 C-1.34 2 -0.68 2 0 2 C0 1.34 0 0.68 0 0 Z " fill="#4C6A2C" transform="translate(182,66)"/>
<path d="M0 0 C16.17 0 32.34 0 49 0 C49 4.29 49 8.58 49 13 C47 11 47 11 46 1 C30.82 1 15.64 1 0 1 C0 0.67 0 0.34 0 0 Z " fill="#5A7B32" transform="translate(362,42)"/>
<path d="M0 0 C0.99 0.495 0.99 0.495 2 1 C2.33 4.96 2.66 8.92 3 13 C16.86 13.33 30.72 13.66 45 14 C45 14.33 45 14.66 45 15 C30.15 15 15.3 15 0 15 C0 10.05 0 5.1 0 0 Z " fill="#5A7A30" transform="translate(259,83)"/>
<path d="M0 0 C7.2265322 -0.05058332 14.45301899 -0.08568412 21.6796875 -0.10986328 C24.13966579 -0.11993983 26.59963206 -0.13360131 29.05957031 -0.15087891 C32.58922285 -0.17505461 36.11871747 -0.1864664 39.6484375 -0.1953125 C40.75367767 -0.20563507 41.85891785 -0.21595764 42.99765015 -0.22659302 C44.01855743 -0.22674408 45.03946472 -0.22689514 46.09130859 -0.22705078 C46.99287689 -0.231492 47.89444519 -0.23593323 48.82333374 -0.24050903 C51 0 51 0 53 2 C52.625 4.625 52.625 4.625 52 7 C51.401875 6.34 50.80375 5.68 50.1875 5 C48.12498166 2.6626154 48.12498166 2.6626154 45 3 C45 2.34 45 1.68 45 1 C29.82 1.33 14.64 1.66 -1 2 C-0.67 1.34 -0.34 0.68 0 0 Z " fill="#587A2D" transform="translate(253,58)"/>
<path d="M0 0 C3 0 3 0 5.1875 1.8125 C7 4 7 4 7 7 C2.65714286 11 2.65714286 11 0 11 C-1.37310707 9.70766393 -2.71034824 8.37562854 -4 7 C-2.79618552 4.50638429 -1.54571278 2.31856917 0 0 Z " fill="#3A6751" transform="translate(88,33)"/>
<path d="M0 0 C3.00609963 1.00203321 4.06176821 1.60028446 6 4 C6 7 6 7 4.1875 9.1875 C2 11 2 11 -1 11 C-2.75 9.25 -2.75 9.25 -4 7 C-3.6875 4.75 -3.6875 4.75 -3 3 C-2.34 3 -1.68 3 -1 3 C-0.67 2.01 -0.34 1.02 0 0 Z " fill="#38654E" transform="translate(39,91)"/>
<path d="M0 0 C0 0.99 0 1.98 0 3 C0.99 3 1.98 3 3 3 C3 4.32 3 5.64 3 7 C2.01 7 1.02 7 0 7 C0 7.99 0 8.98 0 10 C-4 10 -4 10 -5.75 8.75 C-7 7 -7 7 -7 3 C-4.73338012 -0.17326783 -4.14853831 0 0 0 Z " fill="#3A664E" transform="translate(22,70)"/>
<path d="M0 0 C3.00609963 1.00203321 4.06176821 1.60028446 6 4 C6 7 6 7 4.1875 9.1875 C2 11 2 11 -1 11 C-2.75 9.25 -2.75 9.25 -4 7 C-3.6875 4.75 -3.6875 4.75 -3 3 C-2.34 3 -1.68 3 -1 3 C-0.67 2.01 -0.34 1.02 0 0 Z " fill="#3D6951" transform="translate(39,33)"/>
<path d="M0 0 C0.99 0.33 1.98 0.66 3 1 C3 1.66 3 2.32 3 3 C4.32 3.66 5.64 4.32 7 5 C6.01 6.485 6.01 6.485 5 8 C4.34 8 3.68 8 3 8 C2.67 8.99 2.34 9.98 2 11 C1.01 10.67 0.02 10.34 -1 10 C-1 9.34 -1 8.68 -1 8 C-1.99 7.67 -2.98 7.34 -4 7 C-4 4 -4 4 -2 1.8125 C-1.34 1.214375 -0.68 0.61625 0 0 Z " fill="#36694F" transform="translate(95,81)"/>
<path d="M0 0 C2.1875 2 2.1875 2 4 4 C3.67 4.99 3.34 5.98 3 7 C2.34 7 1.68 7 1 7 C0.67 7.99 0.34 8.98 0 10 C-1.32 9.67 -2.64 9.34 -4 9 C-4 8.34 -4 7.68 -4 7 C-4.99 6.67 -5.98 6.34 -7 6 C-5.61469317 1.84407951 -4.52657396 0 0 0 Z " fill="#38634C" transform="translate(111,55)"/>
<path d="M0 0 C0.66 0 1.32 0 2 0 C2 2.64 2 5.28 2 8 C-2.64475959 8.04944066 -7.28936596 8.08573863 -11.93432617 8.10986328 C-13.51443144 8.11992041 -15.0945181 8.13356785 -16.67456055 8.15087891 C-18.9458475 8.17514022 -21.21688836 8.18648582 -23.48828125 8.1953125 C-24.19463211 8.20563507 -24.90098297 8.21595764 -25.6287384 8.22659302 C-29.32197792 8.22743775 -30.83919216 8.10720523 -34 6 C-23.11 6 -12.22 6 -1 6 C-0.67 4.02 -0.34 2.04 0 0 Z " fill="#58782F" transform="translate(393,90)"/>
<path d="M0 0 C4.78717542 -0.04943465 9.57420227 -0.08573582 14.36157227 -0.10986328 C15.99017932 -0.11992142 17.61876832 -0.13356958 19.24731445 -0.15087891 C21.58809872 -0.17513574 23.92864424 -0.18648483 26.26953125 -0.1953125 C27.36186821 -0.21079636 27.36186821 -0.21079636 28.47627258 -0.22659302 C32.21275069 -0.22742249 33.80675056 -0.12883296 37 2 C37.1875 4.625 37.1875 4.625 37 7 C36.16194824 6.18958252 35.32389648 5.37916504 34.46044922 4.54418945 C30.94899708 1.63073876 28.222126 1.34986107 23.6328125 1.29296875 C22.95322479 1.27784744 22.27363708 1.26272614 21.57345581 1.24714661 C19.42362717 1.20449287 17.27520839 1.19545481 15.125 1.1875 C13.65881727 1.16433781 12.19266764 1.13896888 10.7265625 1.11132812 C7.1510679 1.0487011 3.57604108 1.01618836 0 1 C0 0.67 0 0.34 0 0 Z " fill="#526631" transform="translate(275,82)"/>
<path d="M0 0 C0.99 0.33 1.98 0.66 3 1 C3 2.32 3 3.64 3 5 C16.365 5.495 16.365 5.495 30 6 C30.33 5.34 30.66 4.68 31 4 C31 4.99 31 5.98 31 7 C20.77 7 10.54 7 0 7 C0 4.69 0 2.38 0 0 Z " fill="#587A2F" transform="translate(275,75)"/>
<path d="M0 0 C0.99 0.33 1.98 0.66 3 1 C2.50701609 3.30059156 2.03687896 4.94283761 0.75 6.9375 C0.5025 7.618125 0.255 8.29875 0 9 C1.28184562 11.74832154 1.28184562 11.74832154 3 14 C2.34 14 1.68 14 1 14 C-1.39171717 11.53793821 -2.85318016 9.85994475 -3.4375 6.4375 C-2.92500093 3.58214806 -1.90953335 2.14822502 0 0 Z " fill="#597C2D" transform="translate(316,70)"/>
<path d="M0 0 C-0.69867188 0.33773437 -1.39734375 0.67546875 -2.1171875 1.0234375 C-3.02726562 1.46945313 -3.93734375 1.91546875 -4.875 2.375 C-5.77992188 2.81585938 -6.68484375 3.25671875 -7.6171875 3.7109375 C-10.60307212 5.32625213 -11.7637396 6.35422158 -12.9375 9.5625 C-13.288125 10.366875 -13.63875 11.17125 -14 12 C-14.99 12.33 -15.98 12.66 -17 13 C-15.38103999 7.9959418 -12.76398701 3.68269099 -8.22265625 0.91796875 C-4.94281681 -0.60060385 -3.50083904 -1.16694635 0 0 Z " fill="#516F29" transform="translate(366,59)"/>
<path d="M0 0 C0.33 0 0.66 0 1 0 C1 3.63 1 7.26 1 11 C1.66 11 2.32 11 3 11 C3 11.66 3 12.32 3 13 C7.62 13 12.24 13 17 13 C17 13.33 17 13.66 17 14 C11.39 14 5.78 14 0 14 C0 9.38 0 4.76 0 0 Z " fill="#5A7C32" transform="translate(158,100)"/>
<path d="M0 0 C0.33 0.66 0.66 1.32 1 2 C3.01669827 3.13350534 3.01669827 3.13350534 5 4 C4.01 5.485 4.01 5.485 3 7 C2.34 7 1.68 7 1 7 C0.67 7.99 0.34 8.98 0 10 C-0.99 9.67 -1.98 9.34 -3 9 C-3 8.34 -3 7.68 -3 7 C-3.99 6.67 -4.98 6.34 -6 6 C-6 5.01 -6 4.02 -6 3 C-3.86906094 4.06546953 -2.63412443 5.29159719 -1 7 C-0.01 6.01 0.98 5.02 2 4 C1.34 3.67 0.68 3.34 0 3 C0 2.01 0 1.02 0 0 Z " fill="#365A46" transform="translate(97,82)"/>
<path d="M0 0 C2.475 0.99 2.475 0.99 5 2 C3.90931332 5.77545388 3.0916909 8.47043472 0 11 C-0.99 10.67 -1.98 10.34 -3 10 C-1.35 8.35 0.3 6.7 2 5 C1.34 3.35 0.68 1.7 0 0 Z " fill="#396C53" transform="translate(97,48)"/>
<path d="M0 0 C2.98595213 0.86435457 4.60651674 1.35075262 6.25 4.0625 C7.25792433 8.01020363 7.66434414 11.94563052 8 16 C7.34 16.33 6.68 16.66 6 17 C5.96132813 16.11248047 5.96132813 16.11248047 5.921875 15.20703125 C5.54190619 9.91337489 4.89392143 6.89392143 1 3 C0.34 2.34 -0.32 1.68 -1 1 C-0.67 0.67 -0.34 0.34 0 0 Z " fill="#54722F" transform="translate(307,50)"/>
<path d="M0 0 C1.32 0 2.64 0 4 0 C4 0.99 4 1.98 4 3 C4.99 2.67 5.98 2.34 7 2 C7 3.65 7 5.3 7 7 C5.68 6.67 4.36 6.34 3 6 C3 5.01 3 4.02 3 3 C2.01 3 1.02 3 0 3 C0 2.01 0 1.02 0 0 Z " fill="#3C6550" transform="translate(61,115)"/>
<path d="M0 0 C2.0625 0.4375 2.0625 0.4375 4 1 C3.814375 1.7425 3.62875 2.485 3.4375 3.25 C3.00796892 5.94990963 3.14877026 7.44631077 4 10 C3.01 10 2.02 10 1 10 C0.61866701 8.0085944 0.28674418 6.00720923 0 4 C0.33 3.67 0.66 3.34 1 3 C0.34 2.34 -0.32 1.68 -1 1 C-0.67 0.67 -0.34 0.34 0 0 Z " fill="#3C5D4C" transform="translate(81,88)"/>
<path d="M0 0 C2 2 2 2 2 5 C-1.71888239 4.49287967 -4.73454239 3.88391785 -8 2 C-5.36 2 -2.72 2 0 2 C0 1.34 0 0.68 0 0 Z " fill="#397055" transform="translate(78,81)"/>
<path d="M0 0 C1.5 1.3125 1.5 1.3125 3 3 C3 3.99 3 4.98 3 6 C1.68 5.67 0.36 5.34 -1 5 C-1.33 3.68 -1.66 2.36 -2 1 C-1.34 0.67 -0.68 0.34 0 0 Z " fill="#396C53" transform="translate(75,55)"/>
<path d="M0 0 C3 2 3 2 3.6875 5.125 C3.790625 6.07375 3.89375 7.0225 4 8 C1 7 1 7 -0.25 4.5625 C-1 2 -1 2 0 0 Z " fill="#396B55" transform="translate(38,117)"/>
<path d="M0 0 C0.66 0 1.32 0 2 0 C2.33 1.98 2.66 3.96 3 6 C4.32 6.33 5.64 6.66 7 7 C4.625 7.125 4.625 7.125 2 7 C0 5 0 5 -0.125 2.375 C-0.08375 1.59125 -0.0425 0.8075 0 0 Z " fill="#587B34" transform="translate(180,68)"/>
<path d="M0 0 C0.99 0.33 1.98 0.66 3 1 C2.67 2.32 2.34 3.64 2 5 C1.01 4.67 0.02 4.34 -1 4 C-0.67 2.68 -0.34 1.36 0 0 Z " fill="#38574B" transform="translate(24,89)"/>
<path d="M0 0 C0.99 0.33 1.98 0.66 3 1 C2.34 2.32 1.68 3.64 1 5 C0.01 4.01 -0.98 3.02 -2 2 C-1.34 1.34 -0.68 0.68 0 0 Z " fill="#3E5C50" transform="translate(31,109)"/>
<path d="M0 0 C0.99 0 1.98 0 3 0 C3.33 0.99 3.66 1.98 4 3 C2.68 3.33 1.36 3.66 0 4 C0 2.68 0 1.36 0 0 Z " fill="#335847" transform="translate(113,81)"/>
<path d="M0 0 C1.32 0.33 2.64 0.66 4 1 C3.67 1.99 3.34 2.98 3 4 C2.01 4 1.02 4 0 4 C0 2.68 0 1.36 0 0 Z " fill="#365545" transform="translate(101,106)"/>
<path d="M0 0 C1.32 0.33 2.64 0.66 4 1 C3.67 1.99 3.34 2.98 3 4 C2.01 4 1.02 4 0 4 C0 2.68 0 1.36 0 0 Z " fill="#3B614E" transform="translate(48,73)"/>
<path d="M0 0 C1.32 0 2.64 0 4 0 C3.67 1.32 3.34 2.64 3 4 C2.01 3.67 1.02 3.34 0 3 C0 2.01 0 1.02 0 0 Z " fill="#3D5D4D" transform="translate(76,70)"/>
<path d="M0 0 C1.32 0 2.64 0 4 0 C3.67 1.32 3.34 2.64 3 4 C2.01 3.67 1.02 3.34 0 3 C0 2.01 0 1.02 0 0 Z " fill="#3A5B4B" transform="translate(26,55)"/>
<path d="M0 0 C1.32 0 2.64 0 4 0 C3.67 1.32 3.34 2.64 3 4 C2.01 3.67 1.02 3.34 0 3 C0 2.01 0 1.02 0 0 Z " fill="#3A6250" transform="translate(76,30)"/>
</svg>
