<?xml version="1.0" encoding="UTF-8"?>
<svg version="1.1" xmlns="http://www.w3.org/2000/svg" width="131" height="124">
<path d="M0 0 C3.83475164 0.21912867 4.94164113 0.94028394 7.6875 3.75 C11.39811924 8.96492433 12.55602958 12.55005687 12 19 C11.02936517 21.34570085 10.03101947 23.68020619 9 26 C8.87455314 28.64082531 8.87455314 28.64082531 9 31 C9.64066406 30.31292969 10.28132813 29.62585938 10.94140625 28.91796875 C17.11827835 22.48334342 21.33102958 18.10367026 30.5 17.5625 C35.24789832 17.70094643 38.11816269 19.35704694 42 22 C41.88386929 25.8323135 40.51047623 27.89420484 38 30.625 C34.12102296 34.24273981 30.29912703 36.33760912 25 37 C20.7861585 36.59328429 16.99715914 35.33238638 13 34 C9.71439366 36.49706082 9.04194945 37.73216888 8.390625 41.890625 C8.32460767 43.34300623 8.2782503 44.79639364 8.25 46.25 C8.20552734 47.36761719 8.20552734 47.36761719 8.16015625 48.5078125 C8.0897657 50.33796672 8.04258168 52.16898769 8 54 C11.63 54 15.26 54 19 54 C19.66 55.32 20.32 56.64 21 58 C20.67 58.99 20.34 59.98 20 61 C21.32 61.33 22.64 61.66 24 62 C23.7215625 63.11375 23.7215625 63.11375 23.4375 64.25 C23.00796892 66.94990963 23.14877026 68.44631077 24 71 C23.01 71.495 23.01 71.495 22 72 C22.75925781 72.64066406 23.51851562 73.28132813 24.30078125 73.94140625 C34.62485142 82.92642711 34.62485142 82.92642711 36 89 C35.9084746 94.30847307 34.75339955 97.24660045 31 101 C28.13099082 102.72078634 26.00735412 103.25392678 22.67797852 103.2746582 C21.83352676 103.28419022 20.98907501 103.29372223 20.11903381 103.30354309 C18.76267067 103.30217598 18.76267067 103.30217598 17.37890625 103.30078125 C15.97353859 103.30720894 15.97353859 103.30720894 14.53977966 103.31376648 C12.56030077 103.3195038 10.5808008 103.32001445 8.60131836 103.31567383 C5.57694436 103.31251509 2.55354989 103.33597628 -0.47070312 103.36132812 C-2.3958321 103.36360134 -4.3209637 103.36430451 -6.24609375 103.36328125 C-7.14831161 103.372491 -8.05052948 103.38170074 -8.98008728 103.39118958 C-13.81732899 103.35564212 -17.08207738 103.15413648 -21 100 C-24.04653908 96.6327726 -25.35037406 94.12342649 -25.1875 89.625 C-23.82701056 81.51648293 -16.60021563 76.42488942 -10.6015625 71.4453125 C-7.95612635 69.05796768 -7.3322256 66.48836881 -7 63 C-7.495 62.34 -7.99 61.68 -8.5 61 C-8.995 60.34 -9.49 59.68 -10 59 C-9.67 57.35 -9.34 55.7 -9 54 C-5.04 54 -1.08 54 3 54 C2.77342905 49.54410474 2.54294291 46.87994196 0.1875 43.0625 C-3.93937842 40.3921669 -7.16189082 40.51465024 -11.98828125 40.2890625 C-17.81935257 39.72940066 -21.58930705 37.59155103 -25.4375 33.25 C-27.34369694 29.28511037 -27.77719614 26.38180931 -28 22 C-26.16710552 20.16710552 -23.40396175 20.74130341 -20.9375 20.6875 C-13.58089694 20.75203161 -8.95971631 22.12027602 -3.6875 27.25 C-1.55898984 30.71868322 -0.34440031 34.15885625 1 38 C1.495 38.495 1.495 38.495 2 39 C2.99556038 30.09496671 2.99556038 30.09496671 -0.4375 22.3125 C-1.283125 21.549375 -2.12875 20.78625 -3 20 C-4.9722333 16.0555334 -4.45458651 11.2979088 -4 7 C-2.9383472 4.29255356 -1.70086623 2.39184314 0 0 Z M2 5 C-0.4678316 8.70174739 -0.68072732 11.70493475 0 16 C2.24162425 20.25666699 2.24162425 20.25666699 6 23 C8.04968622 19.14176711 8.2641724 16.15603787 7.625 11.9375 C6.60925297 8.78868421 4.49838264 7.04995498 2 5 Z M18.125 28.25 C17.568125 29.11625 17.568125 29.11625 17 30 C20.52145908 32.34763939 22.43763026 32.58258047 26.5703125 32.53515625 C31.06426554 31.54533058 33.93779326 28.27080393 37 25 C34.59434833 22.19216508 34.14863687 22.01705669 30.1875 21.5625 C24.85837603 21.76821986 21.49915624 24.20101251 18.125 28.25 Z M-24 25 C-22.52089344 29.52432595 -21.69552997 31.45748662 -17.875 34.4375 C-13.68859446 36.54414947 -9.58136042 36.37398861 -5 36 C-6.23858396 31.04566415 -7.72758333 28.81354269 -12 26 C-14.88211302 25.03929566 -16.69850044 24.89418117 -19.6875 24.9375 C-20.49574219 24.94652344 -21.30398437 24.95554687 -22.13671875 24.96484375 C-22.75160156 24.97644531 -23.36648437 24.98804687 -24 25 Z M-4 59 C-2.91961603 61.57546394 -2.91961603 61.57546394 -1 64 C1.81373482 64.79243425 1.81373482 64.79243425 4.9375 64.625 C5.97777344 64.63789062 7.01804687 64.65078125 8.08984375 64.6640625 C11.87440252 63.80047191 12.91019846 62.17246982 15 59 C12.95920995 58.8031879 10.91729993 58.61797169 8.875 58.4375 C7.73804688 58.33308594 6.60109375 58.22867188 5.4296875 58.12109375 C2.11102007 58.00391984 -0.7562686 58.3344928 -4 59 Z M-9 76 C-10.4130007 77.29801873 -11.85010597 78.570394 -13.3125 79.8125 C-18.10310739 83.62989885 -18.10310739 83.62989885 -20.875 88.875 C-21.02524355 92.63108863 -20.28344384 94.06414363 -18 97 C-14.9821119 99.0119254 -14.36267076 99.25538856 -10.97509766 99.30639648 C-10.17061188 99.32238388 -9.3661261 99.33837128 -8.53726196 99.35484314 C-7.67160614 99.36020584 -6.80595032 99.36556854 -5.9140625 99.37109375 C-5.02012787 99.38012222 -4.12619324 99.3891507 -3.20516968 99.39845276 C-1.31389721 99.41295977 0.5774255 99.42184312 2.46875 99.42553711 C5.35763446 99.43742852 8.24437925 99.48660368 11.1328125 99.53710938 C12.97134375 99.54657436 14.80988811 99.55380904 16.6484375 99.55859375 C17.94084854 99.58789223 17.94084854 99.58789223 19.2593689 99.61778259 C23.63821372 99.58495853 25.45453626 99.41484805 29.04541016 96.68383789 C31.25156832 94.06574604 31.25156832 94.06574604 31.625 90.5 C30.8354464 86.07849983 29.23955126 85.03422759 26 82 C25.175 81.16339844 24.35 80.32679687 23.5 79.46484375 C22.675 78.63082031 21.85 77.79679687 21 76.9375 C20.175 76.10089844 19.35 75.26429687 18.5 74.40234375 C12.78911719 68.81645584 12.78911719 68.81645584 5.1875 67.25 C-2.02104084 67.48822595 -4.58227511 70.74648932 -9 76 Z " fill="#3E6651" transform="translate(61,10)"/>
<path d="M0 0 C1.32 0.33 2.64 0.66 4 1 C4 1.66 4 2.32 4 3 C4.99 3.33 5.98 3.66 7 4 C6.67 4.99 6.34 5.98 6 7 C4.35 7.33 2.7 7.66 1 8 C1.99 8.66 2.98 9.32 4 10 C5.75 11.3125 5.75 11.3125 7 13 C6.77690773 17.127207 4.9249266 20.40122418 3 24 C1.68 23.67 0.36 23.34 -1 23 C-1 22.01 -1 21.02 -1 20 C-1.99 20 -2.98 20 -4 20 C-4 19.01 -4 18.02 -4 17 C-2.02 16.67 -0.04 16.34 2 16 C2 15.34 2 14.68 2 14 C1.195625 13.690625 0.39125 13.38125 -0.4375 13.0625 C-3 12 -3 12 -4 11 C-4.68322745 6.21740783 -2.79767441 3.75937499 0 0 Z " fill="#3E6350" transform="translate(65,81)"/>
<path d="M0 0 C2.92620735 0.09488748 5.82950044 0.24794572 8.75 0.4375 C19.50758791 1.06630522 30.22763291 1.09734067 41 1 C41 1.66 41 2.32 41 3 C35.34001954 3.04934926 29.68016364 3.08569529 24.02001953 3.10986328 C22.09356506 3.11993582 20.16712592 3.13359443 18.24072266 3.15087891 C15.47554748 3.17507241 12.710574 3.18647036 9.9453125 3.1953125 C9.0806839 3.20563507 8.2160553 3.21595764 7.32522583 3.22659302 C5.21546479 3.22699106 3.10619282 3.12265243 1 3 C0.34 2.34 -0.32 1.68 -1 1 C-0.67 0.67 -0.34 0.34 0 0 Z " fill="#416D54" transform="translate(45,109)"/>
<path d="M0 0 C0.99 0.33 1.98 0.66 3 1 C3.94128806 5.35345729 4.1898968 8.68662408 3 13 C2.01 12.67 1.02 12.34 0 12 C-0.33 13.32 -0.66 14.64 -1 16 C-1.66 15.67 -2.32 15.34 -3 15 C-2.88658363 12.68690295 -2.75896193 10.37449815 -2.625 8.0625 C-2.55539063 6.77472656 -2.48578125 5.48695312 -2.4140625 4.16015625 C-2.27742188 3.11730469 -2.14078125 2.07445312 -2 1 C-1.34 0.67 -0.68 0.34 0 0 Z " fill="#35664A" transform="translate(66,35)"/>
<path d="M0 0 C3 0 3 0 5.1875 1.8125 C7 4 7 4 7 7 C2.65714286 11 2.65714286 11 0 11 C-1.37310707 9.70766393 -2.71034824 8.37562854 -4 7 C-2.79618552 4.50638429 -1.54571278 2.31856917 0 0 Z " fill="#3F6551" transform="translate(88,16)"/>
<path d="M0 0 C3.00609963 1.00203321 4.06176821 1.60028446 6 4 C6 7 6 7 4.1875 9.1875 C2 11 2 11 -1 11 C-2.75 9.25 -2.75 9.25 -4 7 C-3.6875 4.75 -3.6875 4.75 -3 3 C-2.34 3 -1.68 3 -1 3 C-0.67 2.01 -0.34 1.02 0 0 Z " fill="#406551" transform="translate(39,74)"/>
<path d="M0 0 C0 0.99 0 1.98 0 3 C0.99 3 1.98 3 3 3 C3 4.32 3 5.64 3 7 C2.01 7 1.02 7 0 7 C0 7.99 0 8.98 0 10 C-4 10 -4 10 -5.75 8.75 C-7 7 -7 7 -7 3 C-4.73338012 -0.17326783 -4.14853831 0 0 0 Z " fill="#3E5D4C" transform="translate(22,53)"/>
<path d="M0 0 C3.00609963 1.00203321 4.06176821 1.60028446 6 4 C6 7 6 7 4.1875 9.1875 C2 11 2 11 -1 11 C-2.75 9.25 -2.75 9.25 -4 7 C-3.6875 4.75 -3.6875 4.75 -3 3 C-2.34 3 -1.68 3 -1 3 C-0.67 2.01 -0.34 1.02 0 0 Z " fill="#416752" transform="translate(39,16)"/>
<path d="M0 0 C0.99 0.33 1.98 0.66 3 1 C3 1.66 3 2.32 3 3 C4.32 3.66 5.64 4.32 7 5 C6.01 6.485 6.01 6.485 5 8 C4.34 8 3.68 8 3 8 C2.67 8.99 2.34 9.98 2 11 C1.01 10.67 0.02 10.34 -1 10 C-1 9.34 -1 8.68 -1 8 C-1.99 7.67 -2.98 7.34 -4 7 C-4 4 -4 4 -2 1.8125 C-1.34 1.214375 -0.68 0.61625 0 0 Z " fill="#3E624F" transform="translate(95,64)"/>
<path d="M0 0 C2.1875 2 2.1875 2 4 4 C3.67 4.99 3.34 5.98 3 7 C2.34 7 1.68 7 1 7 C0.67 7.99 0.34 8.98 0 10 C-1.32 9.67 -2.64 9.34 -4 9 C-4 8.34 -4 7.68 -4 7 C-4.99 6.67 -5.98 6.34 -7 6 C-5.61469317 1.84407951 -4.52657396 0 0 0 Z " fill="#416450" transform="translate(111,38)"/>
<path d="M0 0 C2.64 0 5.28 0 8 0 C7.34 1.98 6.68 3.96 6 6 C4.68 6 3.36 6 2 6 C1.34 4.02 0.68 2.04 0 0 Z " fill="#406952" transform="translate(16,57)"/>
<path d="M0 0 C0.99 0 1.98 0 3 0 C3 5.28 3 10.56 3 16 C2.67 16 2.34 16 2 16 C1.34 10.72 0.68 5.44 0 0 Z " fill="#2C683D" transform="translate(66,48)"/>
<path d="M0 0 C2.56687367 3.8503105 1.83288724 5.58569763 1 10 C0.67 9.01 0.34 8.02 0 7 C-0.99 7.33 -1.98 7.66 -3 8 C-3 5.69 -3 3.38 -3 1 C-2.34 1.66 -1.68 2.32 -1 3 C-0.67 2.01 -0.34 1.02 0 0 Z " fill="#385D49" transform="translate(95,96)"/>
<path d="M0 0 C-0.66 2.31 -1.32 4.62 -2 7 C-2.33 7 -2.66 7 -3 7 C-3 5.35 -3 3.7 -3 2 C-4.98 2 -6.96 2 -9 2 C-8 0 -8 0 -6.1875 -0.6875 C-3.81180233 -1.02688538 -2.26664171 -0.72856341 0 0 Z " fill="#3C5F4D" transform="translate(85,72)"/>
<path d="M0 0 C0.33 0.99 0.66 1.98 1 3 C1.99 3.33 2.98 3.66 4 4 C3.01 5.32 2.02 6.64 1 8 C1 7.34 1 6.68 1 6 C0.34 6 -0.32 6 -1 6 C-1 5.01 -1 4.02 -1 3 C-1.99 2.67 -2.98 2.34 -4 2 C-2.68 2 -1.36 2 0 2 C0 1.34 0 0.68 0 0 Z " fill="#395F49" transform="translate(67,95)"/>
<path d="M0 0 C0.99 0.33 1.98 0.66 3 1 C2.67 2.32 2.34 3.64 2 5 C1.01 4.67 0.02 4.34 -1 4 C-0.67 2.68 -0.34 1.36 0 0 Z " fill="#465952" transform="translate(24,72)"/>
<path d="M0 0 C0.99 0.33 1.98 0.66 3 1 C2.34 2.32 1.68 3.64 1 5 C0.01 4.01 -0.98 3.02 -2 2 C-1.34 1.34 -0.68 0.68 0 0 Z " fill="#435A50" transform="translate(31,92)"/>
<path d="M0 0 C0.99 0 1.98 0 3 0 C3.33 0.99 3.66 1.98 4 3 C2.68 3.33 1.36 3.66 0 4 C0 2.68 0 1.36 0 0 Z " fill="#3F5948" transform="translate(113,64)"/>
<path d="M0 0 C1.32 0.33 2.64 0.66 4 1 C3.67 1.99 3.34 2.98 3 4 C2.01 4 1.02 4 0 4 C0 2.68 0 1.36 0 0 Z " fill="#424F49" transform="translate(101,89)"/>
<path d="M0 0 C1.32 0.33 2.64 0.66 4 1 C3.67 1.99 3.34 2.98 3 4 C2.01 4 1.02 4 0 4 C0 2.68 0 1.36 0 0 Z " fill="#455F4E" transform="translate(48,56)"/>
<path d="M0 0 C1.32 0 2.64 0 4 0 C3.67 1.32 3.34 2.64 3 4 C2.01 3.67 1.02 3.34 0 3 C0 2.01 0 1.02 0 0 Z " fill="#485D55" transform="translate(76,53)"/>
<path d="M0 0 C1.32 0 2.64 0 4 0 C3.67 1.32 3.34 2.64 3 4 C2.01 3.67 1.02 3.34 0 3 C0 2.01 0 1.02 0 0 Z " fill="#445B4D" transform="translate(76,13)"/>
<path d="M0 0 C0.99 0 1.98 0 3 0 C2.67 1.32 2.34 2.64 2 4 C1.01 3.67 0.02 3.34 -1 3 C-0.67 2.01 -0.34 1.02 0 0 Z " fill="#4C5E54" transform="translate(27,38)"/>
</svg>
